<svg width="1440" height="447" xmlns="http://www.w3.org/2000/svg"><g><path d="M-35.57680081576109,-63.596342196688056L-91.93847380578518,52.64442069455981L34.29835360497236,88.44640787690878Z" fill="#ebf5fc" stroke="#ebf5fc"></path><path d="M-35.57680081576109,-63.596342196688056L34.29835360497236,88.44640787690878L131.0572318173945,-65.48163944855332Z" fill="#ecf4fa" stroke="#ecf4fa"></path><path d="M-35.57680081576109,-63.596342196688056L131.0572318173945,-65.48163944855332L176.52539106085896,-125.53607331588864Z" fill="#e9f2f9" stroke="#e9f2f9"></path><path d="M131.0572318173945,-65.48163944855332L34.29835360497236,88.44640787690878L278.8061476685107,124.1471681278199Z" fill="#daeef8" stroke="#daeef8"></path><path d="M131.0572318173945,-65.48163944855332L278.8061476685107,124.1471681278199L176.52539106085896,-125.53607331588864Z" fill="#e2eff7" stroke="#e2eff7"></path><path d="M176.52539106085896,-125.53607331588864L278.8061476685107,124.1471681278199L362.59635902009904,101.64081232622266Z" fill="#d5eaf5" stroke="#d5eaf5"></path><path d="M176.52539106085896,-125.53607331588864L362.59635902009904,101.64081232622266L433.61437233164907,-20.721567682921886Z" fill="#d9eaf4" stroke="#d9eaf4"></path><path d="M176.52539106085896,-125.53607331588864L433.61437233164907,-20.721567682921886L623.2968300953507,-66.173772867769Z" fill="#d3e7f2" stroke="#d3e7f2"></path><path d="M176.52539106085896,-125.53607331588864L623.2968300953507,-66.173772867769L819.029191872105,-85.15876709483564Z" fill="#c8e0ee" stroke="#c8e0ee"></path><path d="M176.52539106085896,-125.53607331588864L819.029191872105,-85.15876709483564L1447.1680084615946,-121.59110228531063Z" fill="#a9cce4" stroke="#a9cce4"></path><path d="M433.61437233164907,-20.721567682921886L362.59635902009904,101.64081232622266L491.2585282512009,79.24377095885575Z" fill="#c6e4f1" stroke="#c6e4f1"></path><path d="M433.61437233164907,-20.721567682921886L491.2585282512009,79.24377095885575L579.1265641339123,-39.167695278301835Z" fill="#cbe3ef" stroke="#cbe3ef"></path><path d="M433.61437233164907,-20.721567682921886L579.1265641339123,-39.167695278301835L623.2968300953507,-66.173772867769Z" fill="#c7e0ee" stroke="#c7e0ee"></path><path d="M579.1265641339123,-39.167695278301835L491.2585282512009,79.24377095885575L686.5056340768933,74.94361359626055Z" fill="#badbec" stroke="#badbec"></path><path d="M579.1265641339123,-39.167695278301835L686.5056340768933,74.94361359626055L623.2968300953507,-66.173772867769Z" fill="#bedaeb" stroke="#bedaeb"></path><path d="M623.2968300953507,-66.173772867769L686.5056340768933,74.94361359626055L767.713023070246,24.29001317359507Z" fill="#b4d4e8" stroke="#b4d4e8"></path><path d="M623.2968300953507,-66.173772867769L767.713023070246,24.29001317359507L819.029191872105,-85.15876709483564Z" fill="#b2d1e7" stroke="#b2d1e7"></path><path d="M819.029191872105,-85.15876709483564L767.713023070246,24.29001317359507L966.8388568237424,-60.71100499480963Z" fill="#a5c9e2" stroke="#a5c9e2"></path><path d="M819.029191872105,-85.15876709483564L966.8388568237424,-60.71100499480963L1447.1680084615946,-121.59110228531063Z" fill="#8bb8da" stroke="#8bb8da"></path><path d="M966.8388568237424,-60.71100499480963L767.713023070246,24.29001317359507L972.5648477487266,97.30331688188016Z" fill="#9ac4e0" stroke="#9ac4e0"></path><path d="M966.8388568237424,-60.71100499480963L972.5648477487266,97.30331688188016L1098.9558158162981,-53.143830774351954Z" fill="#92bddc" stroke="#92bddc"></path><path d="M966.8388568237424,-60.71100499480963L1098.9558158162981,-53.143830774351954L1447.1680084615946,-121.59110228531063Z" fill="#80b1d6" stroke="#80b1d6"></path><path d="M1098.9558158162981,-53.143830774351954L972.5648477487266,97.30331688188016L1149.9925454054028,57.95844929292798Z" fill="#84b7da" stroke="#84b7da"></path><path d="M1098.9558158162981,-53.143830774351954L1149.9925454054028,57.95844929292798L1289.4485464598984,-61.753277918323874Z" fill="#80b0d6" stroke="#80b0d6"></path><path d="M1098.9558158162981,-53.143830774351954L1289.4485464598984,-61.753277918323874L1447.1680084615946,-121.59110228531063Z" fill="#80a9d2" stroke="#80a9d2"></path><path d="M1289.4485464598984,-61.753277918323874L1149.9925454054028,57.95844929292798L1297.0675765257329,99.7278331965208Z" fill="#79aad4" stroke="#79aad4"></path><path d="M1289.4485464598984,-61.753277918323874L1297.0675765257329,99.7278331965208L1476.3589602615684,32.79312964528799Z" fill="#7aa2cf" stroke="#7aa2cf"></path><path d="M1289.4485464598984,-61.753277918323874L1476.3589602615684,32.79312964528799L1447.1680084615946,-121.59110228531063Z" fill="#809fce" stroke="#809fce"></path><path d="M1447.1680084615946,-121.59110228531063L1476.3589602615684,32.79312964528799L1517.1590997744352,-43.26163161545992Z" fill="#809acb" stroke="#809acb"></path><path d="M1517.1590997744352,-43.26163161545992L1476.3589602615684,32.79312964528799L1585.8159490674734,48.002052465453744Z" fill="#7d96c9" stroke="#7d96c9"></path><path d="M-91.93847380578518,52.64442069455981L-120.034872405231,386.88412274233997L-86.17965060286224,174.38936862163246Z" fill="#bbe2f8" stroke="#bbe2f8"></path><path d="M-91.93847380578518,52.64442069455981L-86.17965060286224,174.38936862163246L34.29835360497236,88.44640787690878Z" fill="#daf2fc" stroke="#daf2fc"></path><path d="M34.29835360497236,88.44640787690878L-86.17965060286224,174.38936862163246L92.20047681592405,226.7109977826476Z" fill="#c6eaf9" stroke="#c6eaf9"></path><path d="M34.29835360497236,88.44640787690878L92.20047681592405,226.7109977826476L278.8061476685107,124.1471681278199Z" fill="#c5eaf8" stroke="#c5eaf8"></path><path d="M278.8061476685107,124.1471681278199L92.20047681592405,226.7109977826476L177.10168219171464,271.8281622044742Z" fill="#a8d7f1" stroke="#a8d7f1"></path><path d="M278.8061476685107,124.1471681278199L177.10168219171464,271.8281622044742L335.3189079556614,174.32351513765752Z" fill="#aad9f1" stroke="#aad9f1"></path><path d="M278.8061476685107,124.1471681278199L335.3189079556614,174.32351513765752L362.59635902009904,101.64081232622266Z" fill="#bbe4f4" stroke="#bbe4f4"></path><path d="M362.59635902009904,101.64081232622266L335.3189079556614,174.32351513765752L529.7349873092026,198.75809786841273Z" fill="#aedef1" stroke="#aedef1"></path><path d="M362.59635902009904,101.64081232622266L529.7349873092026,198.75809786841273L491.2585282512009,79.24377095885575Z" fill="#b4dff1" stroke="#b4dff1"></path><path d="M491.2585282512009,79.24377095885575L529.7349873092026,198.75809786841273L686.5056340768933,74.94361359626055Z" fill="#aad9ed" stroke="#aad9ed"></path><path d="M686.5056340768933,74.94361359626055L529.7349873092026,198.75809786841273L680.6351005844772,227.3310630954802Z" fill="#94cde9" stroke="#94cde9"></path><path d="M686.5056340768933,74.94361359626055L680.6351005844772,227.3310630954802L836.4324616268277,206.05750070884824Z" fill="#87c5e5" stroke="#87c5e5"></path><path d="M686.5056340768933,74.94361359626055L836.4324616268277,206.05750070884824L767.713023070246,24.29001317359507Z" fill="#98cae6" stroke="#98cae6"></path><path d="M767.713023070246,24.29001317359507L836.4324616268277,206.05750070884824L972.5648477487266,97.30331688188016Z" fill="#8bc3e2" stroke="#8bc3e2"></path><path d="M972.5648477487266,97.30331688188016L836.4324616268277,206.05750070884824L1029.527089940384,247.90809385478497Z" fill="#69b1db" stroke="#69b1db"></path><path d="M972.5648477487266,97.30331688188016L1029.527089940384,247.90809385478497L1149.9925454054028,57.95844929292798Z" fill="#70b3db" stroke="#70b3db"></path><path d="M1149.9925454054028,57.95844929292798L1029.527089940384,247.90809385478497L1167.2996862139553,261.2942716944963Z" fill="#54a3d4" stroke="#54a3d4"></path><path d="M1149.9925454054028,57.95844929292798L1167.2996862139553,261.2942716944963L1251.6335542313755,209.8488417081535Z" fill="#52a1d3" stroke="#52a1d3"></path><path d="M1149.9925454054028,57.95844929292798L1251.6335542313755,209.8488417081535L1297.0675765257329,99.7278331965208Z" fill="#64a6d4" stroke="#64a6d4"></path><path d="M1297.0675765257329,99.7278331965208L1251.6335542313755,209.8488417081535L1403.1281580682844,171.39525359496474Z" fill="#599bd0" stroke="#599bd0"></path><path d="M1297.0675765257329,99.7278331965208L1403.1281580682844,171.39525359496474L1476.3589602615684,32.79312964528799Z" fill="#699bce" stroke="#699bce"></path><path d="M1476.3589602615684,32.79312964528799L1403.1281580682844,171.39525359496474L1603.9793333038688,186.73738757148385Z" fill="#6293ca" stroke="#6293ca"></path><path d="M1476.3589602615684,32.79312964528799L1603.9793333038688,186.73738757148385L1585.8159490674734,48.002052465453744Z" fill="#6c90c8" stroke="#6c90c8"></path><path d="M-86.17965060286224,174.38936862163246L-120.034872405231,386.88412274233997L27.18884722329676,317.23136111162603Z" fill="#93c7ee" stroke="#93c7ee"></path><path d="M-86.17965060286224,174.38936862163246L27.18884722329676,317.23136111162603L92.20047681592405,226.7109977826476Z" fill="#a5d4f2" stroke="#a5d4f2"></path><path d="M92.20047681592405,226.7109977826476L27.18884722329676,317.23136111162603L177.10168219171464,271.8281622044742Z" fill="#91c7ec" stroke="#91c7ec"></path><path d="M177.10168219171464,271.8281622044742L27.18884722329676,317.23136111162603L241.29345542751253,372.57855956442654Z" fill="#78b8e6" stroke="#78b8e6"></path><path d="M177.10168219171464,271.8281622044742L241.29345542751253,372.57855956442654L335.3189079556614,174.32351513765752Z" fill="#87c2e9" stroke="#87c2e9"></path><path d="M335.3189079556614,174.32351513765752L241.29345542751253,372.57855956442654L410.196683909744,337.3042401764542Z" fill="#78b9e5" stroke="#78b9e5"></path><path d="M335.3189079556614,174.32351513765752L410.196683909744,337.3042401764542L529.7349873092026,198.75809786841273Z" fill="#8ac6e9" stroke="#8ac6e9"></path><path d="M529.7349873092026,198.75809786841273L410.196683909744,337.3042401764542L533.9457689411938,387.7617176156491Z" fill="#66afe0" stroke="#66afe0"></path><path d="M529.7349873092026,198.75809786841273L533.9457689411938,387.7617176156491L680.6351005844772,227.3310630954802Z" fill="#6cb3e0" stroke="#6cb3e0"></path><path d="M680.6351005844772,227.3310630954802L533.9457689411938,387.7617176156491L709.0353261027485,335.16039851121604Z" fill="#52a1d9" stroke="#52a1d9"></path><path d="M680.6351005844772,227.3310630954802L709.0353261027485,335.16039851121604L836.4324616268277,206.05750070884824Z" fill="#60abdb" stroke="#60abdb"></path><path d="M836.4324616268277,206.05750070884824L709.0353261027485,335.16039851121604L773.2945325877517,415.8098859619349Z" fill="#4297d4" stroke="#4297d4"></path><path d="M836.4324616268277,206.05750070884824L773.2945325877517,415.8098859619349L994.9762252438813,365.8373261243105Z" fill="#338dd0" stroke="#338dd0"></path><path d="M836.4324616268277,206.05750070884824L994.9762252438813,365.8373261243105L1029.527089940384,247.90809385478497Z" fill="#4196d2" stroke="#4196d2"></path><path d="M1029.527089940384,247.90809385478497L994.9762252438813,365.8373261243105L1085.6936906464398,327.7787696197629Z" fill="#2684cb" stroke="#2684cb"></path><path d="M1029.527089940384,247.90809385478497L1085.6936906464398,327.7787696197629L1167.2996862139553,261.2942716944963Z" fill="#2f8acc" stroke="#2f8acc"></path><path d="M1167.2996862139553,261.2942716944963L1085.6936906464398,327.7787696197629L1296.7122897226363,380.29265228658915Z" fill="#1277c4" stroke="#1277c4"></path><path d="M1167.2996862139553,261.2942716944963L1296.7122897226363,380.29265228658915L1251.6335542313755,209.8488417081535Z" fill="#237ec6" stroke="#237ec6"></path><path d="M1251.6335542313755,209.8488417081535L1296.7122897226363,380.29265228658915L1423.894147183746,344.0522088948637Z" fill="#176fc0" stroke="#176fc0"></path><path d="M1251.6335542313755,209.8488417081535L1423.894147183746,344.0522088948637L1403.1281580682844,171.39525359496474Z" fill="#3681c6" stroke="#3681c6"></path><path d="M1403.1281580682844,171.39525359496474L1423.894147183746,344.0522088948637L1603.9793333038688,186.73738757148385Z" fill="#397ac2" stroke="#397ac2"></path><path d="M1603.9793333038688,186.73738757148385L1423.894147183746,344.0522088948637L1629.7312984708697,388.4939230699092Z" fill="#1a60b8" stroke="#1a60b8"></path><path d="M-120.034872405231,386.88412274233997L-84.65461514890194,516.9113531615585L27.18884722329676,317.23136111162603Z" fill="#73a6e3" stroke="#73a6e3"></path><path d="M27.18884722329676,317.23136111162603L-84.65461514890194,516.9113531615585L107.78432627208531,546.9445253256708Z" fill="#6e94db" stroke="#6e94db"></path><path d="M27.18884722329676,317.23136111162603L107.78432627208531,546.9445253256708L241.29345542751253,372.57855956442654Z" fill="#679ede" stroke="#679ede"></path><path d="M241.29345542751253,372.57855956442654L107.78432627208531,546.9445253256708L181.87663656659424,564.7240795288235Z" fill="#6384d4" stroke="#6384d4"></path><path d="M241.29345542751253,372.57855956442654L181.87663656659424,564.7240795288235L356.2633816804737,528.2675809040666Z" fill="#5e83d3" stroke="#5e83d3"></path><path d="M241.29345542751253,372.57855956442654L356.2633816804737,528.2675809040666L410.196683909744,337.3042401764542Z" fill="#5997d9" stroke="#5997d9"></path><path d="M410.196683909744,337.3042401764542L356.2633816804737,528.2675809040666L467.1150205191225,487.6269852183759Z" fill="#5489d3" stroke="#5489d3"></path><path d="M410.196683909744,337.3042401764542L467.1150205191225,487.6269852183759L533.9457689411938,387.7617176156491Z" fill="#5095d7" stroke="#5095d7"></path><path d="M533.9457689411938,387.7617176156491L467.1150205191225,487.6269852183759L666.7511211521924,519.1348833125085Z" fill="#477dcd" stroke="#477dcd"></path><path d="M533.9457689411938,387.7617176156491L666.7511211521924,519.1348833125085L709.0353261027485,335.16039851121604Z" fill="#3d86d0" stroke="#3d86d0"></path><path d="M709.0353261027485,335.16039851121604L666.7511211521924,519.1348833125085L773.2945325877517,415.8098859619349Z" fill="#347dcc" stroke="#347dcc"></path><path d="M773.2945325877517,415.8098859619349L666.7511211521924,519.1348833125085L797.2344691772014,529.9059915728867Z" fill="#3168c4" stroke="#3168c4"></path><path d="M773.2945325877517,415.8098859619349L797.2344691772014,529.9059915728867L980.2802768535912,524.9977194517851Z" fill="#255fc0" stroke="#255fc0"></path><path d="M773.2945325877517,415.8098859619349L980.2802768535912,524.9977194517851L994.9762252438813,365.8373261243105Z" fill="#1e6bc3" stroke="#1e6bc3"></path><path d="M994.9762252438813,365.8373261243105L980.2802768535912,524.9977194517851L1076.2832134310156,495.23932638578117Z" fill="#125bbd" stroke="#125bbd"></path><path d="M994.9762252438813,365.8373261243105L1076.2832134310156,495.23932638578117L1085.6936906464398,327.7787696197629Z" fill="#0e6bc2" stroke="#0e6bc2"></path><path d="M1085.6936906464398,327.7787696197629L1076.2832134310156,495.23932638578117L1296.7122897226363,380.29265228658915Z" fill="#0362be" stroke="#0362be"></path><path d="M1296.7122897226363,380.29265228658915L1076.2832134310156,495.23932638578117L1277.7989010326564,538.572149053216Z" fill="#0049b4" stroke="#0049b4"></path><path d="M1296.7122897226363,380.29265228658915L1277.7989010326564,538.572149053216L1399.5962010975927,497.2594899125397Z" fill="#0041b0" stroke="#0041b0"></path><path d="M1296.7122897226363,380.29265228658915L1399.5962010975927,497.2594899125397L1423.894147183746,344.0522088948637Z" fill="#0050b5" stroke="#0050b5"></path><path d="M1423.894147183746,344.0522088948637L1399.5962010975927,497.2594899125397L1529.4243946485221,509.453734299168Z" fill="#003ead" stroke="#003ead"></path><path d="M1423.894147183746,344.0522088948637L1529.4243946485221,509.453734299168L1629.7312984708697,388.4939230699092Z" fill="#0043ae" stroke="#0043ae"></path><path d="M-84.65461514890194,516.9113531615585L181.87663656659424,564.7240795288235L107.78432627208531,546.9445253256708Z" fill="#6b7ad2" stroke="#6b7ad2"></path><path d="M181.87663656659424,564.7240795288235L1277.7989010326564,538.572149053216L797.2344691772014,529.9059915728867Z" fill="#3057be" stroke="#3057be"></path><path d="M181.87663656659424,564.7240795288235L797.2344691772014,529.9059915728867L666.7511211521924,519.1348833125085Z" fill="#4769c7" stroke="#4769c7"></path><path d="M181.87663656659424,564.7240795288235L666.7511211521924,519.1348833125085L356.2633816804737,528.2675809040666Z" fill="#5470cb" stroke="#5470cb"></path><path d="M356.2633816804737,528.2675809040666L666.7511211521924,519.1348833125085L467.1150205191225,487.6269852183759Z" fill="#4d74cb" stroke="#4d74cb"></path><path d="M797.2344691772014,529.9059915728867L1277.7989010326564,538.572149053216L980.2802768535912,524.9977194517851Z" fill="#1247b6" stroke="#1247b6"></path><path d="M980.2802768535912,524.9977194517851L1277.7989010326564,538.572149053216L1076.2832134310156,495.23932638578117Z" fill="#0843b3" stroke="#0843b3"></path><path d="M1277.7989010326564,538.572149053216L1529.4243946485221,509.453734299168L1399.5962010975927,497.2594899125397Z" fill="#002fa9" stroke="#002fa9"></path></g></svg>