<?xml version="1.0" encoding="utf-8"?>
<!-- Generator: Adobe Illustrator 17.1.0, SVG Export Plug-In . SVG Version: 6.00 Build 0)  -->
<!DOCTYPE svg PUBLIC "-//W3C//DTD SVG 1.1//EN" "http://www.w3.org/Graphics/SVG/1.1/DTD/svg11.dtd" [
	<!ENTITY ns_flows "http://ns.adobe.com/Flows/1.0/">
	<!ENTITY ns_extend "http://ns.adobe.com/Extensibility/1.0/">
	<!ENTITY ns_ai "http://ns.adobe.com/AdobeIllustrator/10.0/">
	<!ENTITY ns_graphs "http://ns.adobe.com/Graphs/1.0/">
	<!ENTITY ns_vars "http://ns.adobe.com/Variables/1.0/">
	<!ENTITY ns_imrep "http://ns.adobe.com/ImageReplacement/1.0/">
	<!ENTITY ns_sfw "http://ns.adobe.com/SaveForWeb/1.0/">
	<!ENTITY ns_custom "http://ns.adobe.com/GenericCustomNamespace/1.0/">
	<!ENTITY ns_adobe_xpath "http://ns.adobe.com/XPath/1.0/">
]>
<svg version="1.1" id="Ebene_1" xmlns:x="&ns_extend;" xmlns:i="&ns_ai;" xmlns:graph="&ns_graphs;"
	 xmlns="http://www.w3.org/2000/svg" xmlns:xlink="http://www.w3.org/1999/xlink" xmlns:a="http://ns.adobe.com/AdobeSVGViewerExtensions/3.0/"
	 x="0px" y="0px" viewBox="0 0 216 72" style="enable-background:new 0 0 216 72;" xml:space="preserve">
<metadata>
	<sfw  xmlns="&ns_sfw;">
		<slices></slices>
		<sliceSourceBounds  y="-8155.5" x="-8083.5" width="16383" height="16383" bottomLeftOrigin="true"></sliceSourceBounds>
	</sfw>
</metadata>
<path style="fill-rule:evenodd;clip-rule:evenodd;fill:#8BBA3A;" d="M169.02,39.347c0.468,0,0.847,0.379,0.847,0.847
	c0,0.468-0.379,0.847-0.847,0.847c-0.468,0-0.847-0.379-0.847-0.847C168.173,39.726,168.552,39.347,169.02,39.347z"/>
<g>
	<path style="fill:#8BBA3A;" d="M43.498,36.31c0,2.437-0.061,4.876,0.023,7.309c0.05,1.472-0.608,2.486-1.761,3.166
		c-4.332,2.554-8.695,5.056-13.055,7.562c-1.057,0.607-2.136,0.558-3.191-0.05c-4.287-2.474-8.584-4.929-12.854-7.433
		c-1.28-0.75-1.975-1.864-1.958-3.451c0.05-4.713,0.057-9.428-0.003-14.141c-0.021-1.688,0.721-2.826,2.088-3.622
		c4.207-2.452,8.433-4.872,12.646-7.314c1.14-0.661,2.256-0.683,3.401-0.021c4.25,2.458,8.516,4.888,12.75,7.373
		c1.269,0.745,2.016,1.806,1.943,3.433C43.418,31.513,43.498,33.914,43.498,36.31z"/>
</g>
<path style="fill:#FFFFFF;" d="M27.114,23.273l-10.858,6.516V42.82l10.858,6.515l10.858-6.515V29.788L27.114,23.273z M27.114,25.406
	l3.048,1.829l-8.375,4.772l-2.852-1.692L27.114,25.406z M26.305,46.716l-8.27-4.962v-9.844l2.746,1.629v2.766l1.631,0.949v-2.747
	l3.894,2.31L26.305,46.716L26.305,46.716z M23.484,33.014l8.28-4.817l3.56,2.137l-8.119,4.889L23.484,33.014z M36.195,41.753
	l-8.111,4.867v-9.79l8.111-4.885V41.753z"/>
<g>
	<path d="M54.564,31.067h0.722v2.09h0.038c0.126-0.368,0.307-0.694,0.542-0.979c0.234-0.285,0.506-0.529,0.817-0.732
		c0.31-0.202,0.649-0.354,1.017-0.456c0.367-0.102,0.741-0.152,1.121-0.152c0.57,0,1.055,0.07,1.454,0.209
		c0.399,0.14,0.725,0.323,0.979,0.551s0.453,0.484,0.599,0.77c0.146,0.285,0.25,0.573,0.313,0.864
		c0.063,0.292,0.101,0.573,0.114,0.846s0.019,0.51,0.019,0.712v6.042h-0.722v-6.175c0-0.241-0.019-0.544-0.057-0.912
		c-0.038-0.367-0.149-0.719-0.333-1.055c-0.184-0.335-0.462-0.624-0.836-0.864c-0.374-0.241-0.89-0.361-1.549-0.361
		c-0.557,0-1.051,0.102-1.482,0.304s-0.798,0.484-1.102,0.846c-0.304,0.361-0.535,0.792-0.693,1.292
		c-0.159,0.5-0.237,1.048-0.237,1.643v5.283h-0.722V31.067z"/>
	<path d="M65.299,33.31h0.057c0.076-0.241,0.202-0.506,0.38-0.798c0.177-0.292,0.412-0.561,0.703-0.808
		c0.291-0.247,0.643-0.453,1.054-0.618c0.412-0.165,0.884-0.247,1.416-0.247c0.748,0,1.396,0.14,1.948,0.418
		c0.551,0.279,1.007,0.653,1.368,1.121c0.361,0.469,0.63,1.014,0.808,1.634s0.266,1.273,0.266,1.957
		c0,0.747-0.089,1.431-0.267,2.052s-0.448,1.156-0.81,1.605s-0.819,0.801-1.371,1.055c-0.552,0.253-1.203,0.38-1.952,0.38
		c-0.813,0-1.537-0.178-2.171-0.532s-1.098-0.931-1.39-1.729h-0.038l0,5.529h-0.703V31.067h0.703V33.31z M68.899,40.435
		c0.635,0,1.184-0.12,1.647-0.36c0.463-0.241,0.844-0.564,1.143-0.97c0.298-0.405,0.521-0.877,0.667-1.415
		c0.146-0.539,0.219-1.111,0.219-1.72c0-0.558-0.07-1.105-0.209-1.644s-0.355-1.02-0.648-1.444
		c-0.292-0.424-0.669-0.766-1.133-1.026c-0.464-0.259-1.025-0.39-1.686-0.39c-0.648,0-1.2,0.127-1.658,0.38
		c-0.457,0.253-0.829,0.589-1.114,1.007c-0.286,0.418-0.492,0.896-0.619,1.435c-0.127,0.539-0.19,1.099-0.19,1.682
		c0,0.583,0.057,1.144,0.171,1.681c0.114,0.539,0.308,1.014,0.581,1.426c0.273,0.412,0.641,0.74,1.105,0.988
		C67.639,40.311,68.213,40.435,68.899,40.435z"/>
	<path d="M75.008,31.067h0.722v1.995h0.038c0.076-0.304,0.209-0.592,0.399-0.865c0.19-0.272,0.421-0.509,0.693-0.712
		c0.272-0.202,0.576-0.361,0.912-0.475c0.335-0.114,0.687-0.171,1.054-0.171c0.469,0,0.874,0.061,1.216,0.181
		c0.342,0.121,0.633,0.279,0.874,0.475c0.24,0.196,0.43,0.418,0.57,0.665c0.139,0.247,0.234,0.497,0.285,0.75h0.038
		c0.292-0.684,0.681-1.2,1.169-1.549c0.487-0.348,1.13-0.522,1.928-0.522c0.443,0,0.852,0.066,1.226,0.2
		c0.374,0.133,0.696,0.336,0.969,0.608c0.272,0.272,0.485,0.618,0.637,1.036s0.228,0.912,0.228,1.482v6.669h-0.722v-6.688
		c0-0.621-0.095-1.108-0.285-1.463s-0.415-0.624-0.675-0.808s-0.52-0.297-0.779-0.342c-0.26-0.044-0.459-0.067-0.599-0.067
		c-0.443,0-0.852,0.076-1.226,0.228c-0.374,0.152-0.697,0.38-0.969,0.684c-0.272,0.304-0.484,0.681-0.637,1.13
		c-0.152,0.45-0.228,0.966-0.228,1.549v5.776h-0.722v-6.688c0-0.608-0.092-1.092-0.276-1.454c-0.184-0.361-0.399-0.63-0.646-0.808
		c-0.247-0.177-0.5-0.291-0.76-0.342c-0.26-0.05-0.465-0.076-0.618-0.076c-0.342,0-0.697,0.07-1.064,0.209
		c-0.367,0.14-0.703,0.355-1.007,0.646c-0.304,0.292-0.551,0.665-0.741,1.121s-0.285,0.995-0.285,1.615v5.776h-0.722V31.067z"/>
	<path style="fill:#777777;" d="M96.592,38.896h-0.038c-0.114,0.292-0.279,0.567-0.494,0.827c-0.216,0.26-0.479,0.49-0.789,0.693
		c-0.311,0.202-0.662,0.36-1.055,0.475c-0.393,0.113-0.824,0.171-1.292,0.171c-1.039,0-1.843-0.226-2.413-0.675
		c-0.57-0.449-0.855-1.143-0.855-2.08c0-0.57,0.114-1.035,0.342-1.396s0.516-0.646,0.864-0.855c0.348-0.209,0.734-0.358,1.159-0.447
		c0.424-0.088,0.833-0.152,1.226-0.19l1.121-0.095c0.52-0.038,0.928-0.098,1.226-0.181c0.297-0.083,0.522-0.196,0.675-0.342
		c0.152-0.145,0.247-0.333,0.285-0.56c0.038-0.228,0.057-0.513,0.057-0.855c0-0.266-0.051-0.513-0.152-0.741
		c-0.102-0.228-0.26-0.431-0.475-0.608c-0.216-0.177-0.494-0.316-0.836-0.418c-0.342-0.102-0.76-0.152-1.254-0.152
		c-0.874,0-1.581,0.216-2.119,0.646c-0.539,0.431-0.833,1.083-0.884,1.957H90.17c0.05-1.076,0.396-1.884,1.036-2.422
		c0.639-0.538,1.548-0.808,2.726-0.808c1.178,0,2.036,0.231,2.575,0.694c0.538,0.462,0.808,1.067,0.808,1.814v5.681
		c0,0.14,0.003,0.278,0.009,0.418s0.029,0.267,0.066,0.38c0.038,0.114,0.102,0.207,0.19,0.275c0.089,0.07,0.215,0.105,0.38,0.105
		c0.126,0,0.304-0.02,0.532-0.058v0.608c-0.19,0.051-0.386,0.076-0.589,0.076c-0.292,0-0.522-0.039-0.693-0.114
		c-0.171-0.076-0.301-0.177-0.39-0.304c-0.089-0.127-0.149-0.275-0.181-0.447c-0.032-0.171-0.047-0.357-0.047-0.561V38.896z
		 M96.592,35.286c-0.178,0.215-0.446,0.361-0.808,0.437c-0.361,0.076-0.763,0.133-1.207,0.171l-1.216,0.114
		c-0.355,0.038-0.709,0.092-1.064,0.162c-0.355,0.07-0.674,0.187-0.959,0.352c-0.285,0.165-0.516,0.39-0.693,0.675
		c-0.178,0.285-0.266,0.655-0.266,1.111c0,0.722,0.228,1.258,0.684,1.605c0.456,0.349,1.083,0.522,1.881,0.522
		c0.823,0,1.476-0.149,1.957-0.446c0.481-0.298,0.849-0.64,1.102-1.026c0.253-0.386,0.415-0.76,0.484-1.121
		c0.069-0.36,0.104-0.604,0.104-0.731V35.286z"/>
	<path style="fill:#777777;" d="M102.045,39.998h0.038l2.66-8.931h0.969l2.679,8.931h0.038l2.736-8.931h0.798l-3.135,9.767h-0.893
		l-2.679-8.854h-0.038l-2.698,8.854h-0.912l-3.097-9.767h0.779L102.045,39.998z"/>
	<path style="fill:#777777;" d="M113.255,36.045v0.114c0,0.57,0.076,1.115,0.229,1.633c0.152,0.52,0.378,0.977,0.677,1.369
		c0.298,0.393,0.673,0.702,1.123,0.93c0.451,0.229,0.975,0.343,1.572,0.343c0.978,0,1.753-0.257,2.324-0.77s0.965-1.226,1.181-2.138
		h0.723c-0.216,1.141-0.682,2.014-1.396,2.622c-0.716,0.608-1.663,0.912-2.841,0.912c-0.722,0-1.353-0.13-1.891-0.39
		s-0.987-0.614-1.349-1.064c-0.361-0.449-0.631-0.98-0.808-1.596c-0.178-0.613-0.266-1.275-0.266-1.985
		c0-0.684,0.092-1.339,0.275-1.966s0.459-1.178,0.826-1.653c0.367-0.475,0.826-0.855,1.378-1.14
		c0.551-0.285,1.199-0.428,1.947-0.428c0.684,0,1.289,0.127,1.814,0.38s0.966,0.598,1.32,1.035s0.624,0.944,0.808,1.52
		c0.184,0.577,0.275,1.194,0.275,1.853c0,0.063-0.003,0.136-0.01,0.219c-0.006,0.083-0.009,0.149-0.009,0.199H113.255z
		 M120.437,35.418c-0.025-0.532-0.114-1.036-0.267-1.51c-0.152-0.475-0.378-0.893-0.676-1.254c-0.299-0.361-0.661-0.649-1.086-0.864
		c-0.426-0.215-0.912-0.323-1.458-0.323c-0.584,0-1.099,0.111-1.543,0.333c-0.444,0.222-0.819,0.513-1.124,0.874
		c-0.305,0.361-0.539,0.782-0.704,1.264s-0.268,0.976-0.306,1.482H120.437z"/>
	<path style="fill:#777777;" d="M123.192,37.584c0.025,0.457,0.126,0.859,0.304,1.207c0.178,0.349,0.408,0.646,0.693,0.893
		c0.285,0.248,0.618,0.435,0.998,0.561c0.38,0.127,0.791,0.19,1.234,0.19c0.316,0,0.655-0.028,1.017-0.085
		c0.361-0.058,0.696-0.162,1.007-0.314s0.567-0.363,0.77-0.637c0.203-0.271,0.305-0.617,0.305-1.035
		c0-0.545-0.165-0.956-0.494-1.234c-0.33-0.279-0.744-0.494-1.245-0.646c-0.5-0.152-1.038-0.275-1.614-0.371
		c-0.577-0.095-1.115-0.237-1.615-0.427c-0.501-0.19-0.915-0.459-1.245-0.808c-0.329-0.348-0.493-0.858-0.493-1.529
		c0-0.481,0.107-0.884,0.322-1.207c0.216-0.323,0.491-0.58,0.827-0.77c0.335-0.19,0.712-0.326,1.13-0.409
		c0.418-0.082,0.836-0.124,1.254-0.124c0.507,0,0.981,0.057,1.426,0.171c0.443,0.114,0.826,0.298,1.149,0.551
		c0.322,0.253,0.576,0.577,0.76,0.969c0.184,0.393,0.275,0.868,0.275,1.425h-0.722c0-0.443-0.073-0.823-0.219-1.14
		c-0.146-0.316-0.349-0.573-0.608-0.77c-0.26-0.196-0.566-0.342-0.921-0.437c-0.354-0.095-0.735-0.143-1.141-0.143
		c-0.329,0-0.661,0.032-0.997,0.095s-0.637,0.171-0.902,0.323c-0.267,0.152-0.484,0.349-0.655,0.589s-0.257,0.532-0.257,0.874
		c0,0.393,0.095,0.709,0.285,0.95c0.189,0.241,0.439,0.434,0.75,0.58c0.311,0.146,0.659,0.263,1.045,0.352
		c0.387,0.089,0.776,0.178,1.169,0.266c0.481,0.089,0.934,0.193,1.358,0.313c0.424,0.121,0.791,0.285,1.102,0.494
		c0.311,0.21,0.555,0.479,0.732,0.808c0.177,0.33,0.266,0.748,0.266,1.254c0,0.532-0.121,0.969-0.361,1.311
		c-0.24,0.343-0.545,0.618-0.912,0.827s-0.775,0.354-1.226,0.437c-0.449,0.082-0.89,0.124-1.32,0.124
		c-0.558,0-1.073-0.073-1.548-0.219c-0.476-0.146-0.891-0.367-1.245-0.665c-0.354-0.297-0.634-0.662-0.836-1.092
		c-0.202-0.432-0.311-0.932-0.323-1.502H123.192z"/>
	<path style="fill:#777777;" d="M131.533,35.951c0-0.697,0.098-1.352,0.294-1.967c0.196-0.614,0.484-1.156,0.864-1.625
		c0.381-0.468,0.849-0.839,1.406-1.111s1.197-0.409,1.919-0.409c0.723,0,1.361,0.136,1.919,0.409s1.026,0.643,1.406,1.111
		c0.38,0.469,0.668,1.01,0.864,1.625c0.196,0.615,0.295,1.27,0.295,1.967s-0.099,1.356-0.295,1.975
		c-0.196,0.621-0.484,1.163-0.864,1.625c-0.38,0.463-0.849,0.83-1.406,1.102c-0.558,0.273-1.196,0.409-1.919,0.409
		c-0.722,0-1.361-0.136-1.919-0.409c-0.558-0.271-1.025-0.639-1.406-1.102c-0.38-0.462-0.668-1.004-0.864-1.625
		C131.631,37.307,131.533,36.647,131.533,35.951z M132.255,35.951c0,0.583,0.082,1.143,0.247,1.681
		c0.164,0.538,0.405,1.017,0.722,1.435s0.709,0.75,1.178,0.998c0.469,0.246,1.008,0.37,1.615,0.37c0.608,0,1.146-0.124,1.615-0.37
		c0.469-0.248,0.861-0.58,1.178-0.998s0.558-0.896,0.723-1.435c0.164-0.538,0.246-1.099,0.246-1.681s-0.082-1.143-0.246-1.682
		c-0.165-0.538-0.406-1.017-0.723-1.435s-0.709-0.75-1.178-0.998s-1.007-0.371-1.615-0.371c-0.607,0-1.146,0.124-1.615,0.371
		s-0.861,0.58-1.178,0.998s-0.558,0.896-0.722,1.435C132.337,34.808,132.255,35.368,132.255,35.951z"/>
	<path style="fill:#777777;" d="M142.211,31.067h0.722v1.995h0.038c0.076-0.304,0.209-0.592,0.399-0.865
		c0.189-0.272,0.421-0.509,0.693-0.712c0.272-0.202,0.576-0.361,0.912-0.475c0.335-0.114,0.687-0.171,1.055-0.171
		c0.468,0,0.874,0.061,1.216,0.181c0.342,0.121,0.633,0.279,0.874,0.475c0.24,0.196,0.431,0.418,0.569,0.665
		c0.14,0.247,0.234,0.497,0.285,0.75h0.038c0.291-0.684,0.681-1.2,1.169-1.549c0.487-0.348,1.13-0.522,1.929-0.522
		c0.442,0,0.852,0.066,1.225,0.2c0.374,0.133,0.697,0.336,0.97,0.608c0.272,0.272,0.484,0.618,0.637,1.036
		c0.151,0.418,0.228,0.912,0.228,1.482v6.669h-0.722v-6.688c0-0.621-0.096-1.108-0.285-1.463c-0.19-0.354-0.415-0.624-0.675-0.808
		s-0.52-0.297-0.779-0.342s-0.459-0.067-0.598-0.067c-0.444,0-0.853,0.076-1.226,0.228c-0.374,0.152-0.697,0.38-0.97,0.684
		c-0.272,0.304-0.484,0.681-0.636,1.13c-0.152,0.45-0.229,0.966-0.229,1.549v5.776h-0.722v-6.688c0-0.608-0.092-1.092-0.275-1.454
		c-0.184-0.361-0.399-0.63-0.646-0.808c-0.247-0.177-0.5-0.291-0.76-0.342c-0.26-0.05-0.466-0.076-0.617-0.076
		c-0.343,0-0.697,0.07-1.064,0.209c-0.367,0.14-0.703,0.355-1.007,0.646c-0.304,0.292-0.551,0.665-0.741,1.121
		c-0.189,0.456-0.285,0.995-0.285,1.615v5.776h-0.722V31.067z"/>
	<path style="fill:#777777;" d="M157.582,36.045v0.114c0,0.57,0.076,1.115,0.229,1.633c0.152,0.52,0.378,0.977,0.677,1.369
		c0.298,0.393,0.673,0.702,1.123,0.93c0.451,0.229,0.975,0.343,1.572,0.343c0.978,0,1.753-0.257,2.324-0.77s0.965-1.226,1.181-2.138
		h0.723c-0.216,1.141-0.682,2.014-1.396,2.622c-0.716,0.608-1.663,0.912-2.841,0.912c-0.722,0-1.353-0.13-1.891-0.39
		s-0.987-0.614-1.349-1.064c-0.361-0.449-0.631-0.98-0.808-1.596c-0.178-0.613-0.266-1.275-0.266-1.985
		c0-0.684,0.092-1.339,0.275-1.966s0.459-1.178,0.826-1.653c0.367-0.475,0.826-0.855,1.378-1.14
		c0.551-0.285,1.199-0.428,1.947-0.428c0.684,0,1.289,0.127,1.814,0.38s0.966,0.598,1.32,1.035s0.624,0.944,0.808,1.52
		c0.184,0.577,0.275,1.194,0.275,1.853c0,0.063-0.003,0.136-0.01,0.219c-0.006,0.083-0.009,0.149-0.009,0.199H157.582z
		 M164.764,35.418c-0.025-0.532-0.114-1.036-0.267-1.51c-0.152-0.475-0.378-0.893-0.676-1.254c-0.299-0.361-0.661-0.649-1.086-0.864
		c-0.426-0.215-0.912-0.323-1.458-0.323c-0.584,0-1.099,0.111-1.543,0.333c-0.444,0.222-0.819,0.513-1.124,0.874
		c-0.305,0.361-0.539,0.782-0.704,1.264s-0.268,0.976-0.306,1.482H164.764z"/>
	<path style="fill:#777777;" d="M179.812,34.088c-0.038-0.43-0.149-0.811-0.332-1.14c-0.185-0.33-0.422-0.602-0.713-0.817
		c-0.292-0.215-0.63-0.38-1.017-0.494c-0.387-0.114-0.801-0.171-1.244-0.171c-0.608,0-1.146,0.124-1.615,0.371
		s-0.861,0.577-1.178,0.988c-0.317,0.412-0.558,0.88-0.723,1.406c-0.164,0.526-0.247,1.067-0.247,1.625
		c0,0.658,0.076,1.267,0.229,1.824c0.151,0.557,0.386,1.042,0.703,1.453c0.316,0.412,0.709,0.731,1.178,0.959
		c0.469,0.229,1.02,0.343,1.653,0.343c0.456,0,0.877-0.076,1.263-0.228c0.387-0.152,0.729-0.361,1.026-0.627
		c0.298-0.267,0.542-0.586,0.731-0.96c0.19-0.374,0.316-0.782,0.38-1.226h0.723c-0.076,0.582-0.235,1.102-0.476,1.559
		c-0.24,0.455-0.545,0.839-0.912,1.148c-0.367,0.311-0.785,0.549-1.254,0.713s-0.963,0.247-1.481,0.247
		c-0.798,0-1.479-0.143-2.043-0.428c-0.563-0.284-1.025-0.668-1.387-1.149c-0.361-0.48-0.627-1.035-0.798-1.662
		s-0.257-1.283-0.257-1.967c0-0.684,0.098-1.33,0.295-1.938c0.196-0.608,0.484-1.14,0.864-1.596c0.38-0.456,0.849-0.817,1.406-1.083
		c0.557-0.266,1.196-0.399,1.919-0.399c0.531,0,1.028,0.066,1.491,0.2c0.462,0.133,0.874,0.333,1.235,0.599
		c0.36,0.266,0.655,0.605,0.883,1.016c0.229,0.412,0.367,0.89,0.418,1.435H179.812z"/>
	<path style="fill:#777777;" d="M181.865,35.951c0-0.697,0.098-1.352,0.294-1.967c0.196-0.614,0.484-1.156,0.864-1.625
		c0.381-0.468,0.849-0.839,1.406-1.111s1.197-0.409,1.919-0.409c0.723,0,1.361,0.136,1.919,0.409s1.026,0.643,1.406,1.111
		c0.38,0.469,0.668,1.01,0.864,1.625c0.196,0.615,0.295,1.27,0.295,1.967s-0.099,1.356-0.295,1.975
		c-0.196,0.621-0.484,1.163-0.864,1.625c-0.38,0.463-0.849,0.83-1.406,1.102c-0.558,0.273-1.196,0.409-1.919,0.409
		c-0.722,0-1.361-0.136-1.919-0.409c-0.558-0.271-1.025-0.639-1.406-1.102c-0.38-0.462-0.668-1.004-0.864-1.625
		C181.963,37.307,181.865,36.647,181.865,35.951z M182.587,35.951c0,0.583,0.082,1.143,0.247,1.681
		c0.164,0.538,0.405,1.017,0.722,1.435s0.709,0.75,1.178,0.998c0.469,0.246,1.008,0.37,1.615,0.37c0.608,0,1.146-0.124,1.615-0.37
		c0.469-0.248,0.861-0.58,1.178-0.998s0.558-0.896,0.723-1.435c0.164-0.538,0.246-1.099,0.246-1.681s-0.082-1.143-0.246-1.682
		c-0.165-0.538-0.406-1.017-0.723-1.435s-0.709-0.75-1.178-0.998s-1.007-0.371-1.615-0.371c-0.607,0-1.146,0.124-1.615,0.371
		s-0.861,0.58-1.178,0.998s-0.558,0.896-0.722,1.435C182.669,34.808,182.587,35.368,182.587,35.951z"/>
	<path style="fill:#777777;" d="M192.543,31.067h0.722v1.995h0.038c0.076-0.304,0.209-0.592,0.399-0.865
		c0.189-0.272,0.421-0.509,0.693-0.712c0.272-0.202,0.576-0.361,0.912-0.475c0.335-0.114,0.687-0.171,1.055-0.171
		c0.468,0,0.874,0.061,1.216,0.181c0.342,0.121,0.633,0.279,0.874,0.475c0.24,0.196,0.431,0.418,0.569,0.665
		c0.14,0.247,0.234,0.497,0.285,0.75h0.038c0.291-0.684,0.681-1.2,1.169-1.549c0.487-0.348,1.13-0.522,1.929-0.522
		c0.442,0,0.852,0.066,1.225,0.2c0.374,0.133,0.697,0.336,0.97,0.608c0.272,0.272,0.484,0.618,0.637,1.036
		c0.151,0.418,0.228,0.912,0.228,1.482v6.669h-0.722v-6.688c0-0.621-0.096-1.108-0.285-1.463c-0.19-0.354-0.415-0.624-0.675-0.808
		s-0.52-0.297-0.779-0.342s-0.459-0.067-0.598-0.067c-0.444,0-0.853,0.076-1.226,0.228c-0.374,0.152-0.697,0.38-0.97,0.684
		c-0.272,0.304-0.484,0.681-0.636,1.13c-0.152,0.45-0.229,0.966-0.229,1.549v5.776h-0.722v-6.688c0-0.608-0.092-1.092-0.275-1.454
		c-0.184-0.361-0.399-0.63-0.646-0.808c-0.247-0.177-0.5-0.291-0.76-0.342c-0.26-0.05-0.466-0.076-0.617-0.076
		c-0.343,0-0.697,0.07-1.064,0.209c-0.367,0.14-0.703,0.355-1.007,0.646c-0.304,0.292-0.551,0.665-0.741,1.121
		c-0.189,0.456-0.285,0.995-0.285,1.615v5.776h-0.722V31.067z"/>
</g>
<g>
	<path style="fill:#777777;" d="M133.329,45.925h0.285v0.825h0.015c0.05-0.145,0.121-0.273,0.214-0.386s0.2-0.209,0.322-0.289
		c0.123-0.08,0.257-0.14,0.401-0.18c0.146-0.04,0.293-0.061,0.442-0.061c0.226,0,0.417,0.028,0.574,0.083s0.286,0.127,0.386,0.218
		c0.101,0.09,0.179,0.19,0.236,0.304c0.058,0.112,0.099,0.226,0.124,0.341s0.04,0.227,0.045,0.334s0.008,0.201,0.008,0.281v2.385
		h-0.285v-2.438c0-0.095-0.008-0.215-0.022-0.36c-0.015-0.145-0.059-0.283-0.131-0.416c-0.073-0.132-0.183-0.246-0.33-0.341
		c-0.147-0.096-0.352-0.143-0.611-0.143c-0.221,0-0.415,0.04-0.585,0.12s-0.315,0.19-0.436,0.333s-0.211,0.312-0.273,0.511
		c-0.062,0.197-0.094,0.413-0.094,0.648v2.085h-0.285V45.925z"/>
	<path style="fill:#777777;" d="M137.566,46.811h0.022c0.03-0.095,0.08-0.2,0.15-0.315s0.162-0.221,0.277-0.318
		s0.254-0.179,0.416-0.244c0.163-0.064,0.35-0.098,0.56-0.098c0.295,0,0.551,0.056,0.769,0.165c0.217,0.11,0.397,0.258,0.54,0.442
		c0.143,0.186,0.248,0.4,0.318,0.646s0.105,0.502,0.105,0.772c0,0.295-0.035,0.565-0.105,0.81c-0.07,0.245-0.177,0.457-0.319,0.634
		c-0.144,0.178-0.323,0.316-0.542,0.417c-0.218,0.1-0.475,0.149-0.771,0.149c-0.32,0-0.606-0.07-0.856-0.21
		c-0.251-0.14-0.434-0.367-0.549-0.683h-0.015l-0.001,2.183h-0.277v-5.235h0.277V46.811z M138.988,49.623
		c0.25,0,0.467-0.048,0.65-0.143c0.183-0.095,0.333-0.223,0.451-0.383c0.117-0.16,0.205-0.346,0.263-0.559s0.087-0.438,0.087-0.679
		c0-0.22-0.028-0.437-0.083-0.648c-0.055-0.213-0.141-0.402-0.256-0.57s-0.264-0.303-0.447-0.405
		c-0.183-0.103-0.404-0.153-0.665-0.153c-0.256,0-0.474,0.05-0.654,0.149c-0.181,0.101-0.327,0.232-0.44,0.397
		c-0.112,0.165-0.194,0.354-0.244,0.566c-0.05,0.213-0.075,0.434-0.075,0.664c0,0.229,0.022,0.451,0.067,0.664
		c0.045,0.212,0.122,0.399,0.229,0.562c0.108,0.162,0.253,0.292,0.437,0.39C138.49,49.574,138.718,49.623,138.988,49.623z"/>
	<path style="fill:#777777;" d="M141.399,45.925h0.285v0.788h0.015c0.03-0.12,0.082-0.233,0.157-0.342
		c0.075-0.107,0.166-0.201,0.274-0.281c0.107-0.079,0.227-0.142,0.359-0.188c0.133-0.045,0.271-0.067,0.416-0.067
		c0.186,0,0.346,0.024,0.48,0.071c0.135,0.048,0.25,0.11,0.345,0.188c0.095,0.078,0.17,0.165,0.226,0.263
		c0.055,0.098,0.092,0.196,0.112,0.296h0.015c0.115-0.27,0.269-0.474,0.462-0.61c0.192-0.138,0.445-0.207,0.761-0.207
		c0.175,0,0.336,0.026,0.483,0.079s0.275,0.133,0.383,0.24s0.191,0.243,0.251,0.408c0.061,0.165,0.091,0.36,0.091,0.585v2.633
		h-0.285v-2.64c0-0.245-0.038-0.438-0.113-0.578c-0.074-0.14-0.163-0.246-0.266-0.318s-0.205-0.117-0.308-0.135
		s-0.182-0.026-0.236-0.026c-0.175,0-0.336,0.029-0.483,0.09c-0.147,0.06-0.275,0.15-0.383,0.27c-0.107,0.12-0.191,0.27-0.251,0.446
		c-0.061,0.178-0.09,0.382-0.09,0.611v2.28h-0.285v-2.64c0-0.24-0.036-0.432-0.109-0.574c-0.072-0.143-0.157-0.249-0.255-0.318
		c-0.098-0.07-0.197-0.115-0.3-0.136c-0.103-0.02-0.184-0.029-0.244-0.029c-0.135,0-0.274,0.027-0.42,0.082
		c-0.145,0.056-0.277,0.141-0.397,0.255c-0.12,0.115-0.217,0.263-0.292,0.442c-0.075,0.181-0.112,0.393-0.112,0.638v2.28h-0.285
		V45.925z"/>
	<path style="fill:#777777;" d="M149.791,46.811h0.022c0.03-0.095,0.08-0.2,0.15-0.315s0.162-0.221,0.277-0.318
		s0.254-0.179,0.416-0.244c0.163-0.064,0.35-0.098,0.56-0.098c0.295,0,0.551,0.056,0.769,0.165c0.217,0.11,0.397,0.258,0.54,0.442
		c0.143,0.186,0.248,0.4,0.318,0.646s0.105,0.502,0.105,0.772c0,0.295-0.035,0.565-0.105,0.81c-0.07,0.245-0.177,0.457-0.319,0.634
		c-0.144,0.178-0.323,0.316-0.542,0.417c-0.218,0.1-0.475,0.149-0.771,0.149c-0.32,0-0.606-0.07-0.856-0.21
		c-0.251-0.14-0.434-0.367-0.549-0.683h-0.015l-0.001,2.183h-0.277v-5.235h0.277V46.811z M151.213,49.623
		c0.25,0,0.467-0.048,0.65-0.143c0.183-0.095,0.333-0.223,0.451-0.383c0.117-0.16,0.205-0.346,0.263-0.559s0.087-0.438,0.087-0.679
		c0-0.22-0.028-0.437-0.083-0.648c-0.055-0.213-0.141-0.402-0.256-0.57s-0.264-0.303-0.447-0.405
		c-0.183-0.103-0.404-0.153-0.665-0.153c-0.256,0-0.474,0.05-0.654,0.149c-0.181,0.101-0.327,0.232-0.44,0.397
		c-0.112,0.165-0.194,0.354-0.244,0.566c-0.05,0.213-0.075,0.434-0.075,0.664c0,0.229,0.022,0.451,0.067,0.664
		c0.045,0.212,0.122,0.399,0.229,0.562c0.108,0.162,0.253,0.292,0.437,0.39C150.715,49.574,150.942,49.623,151.213,49.623z"/>
	<path style="fill:#777777;" d="M153.684,45.198v-0.773h0.285v0.773H153.684z M153.684,49.78v-3.855h0.285v3.855H153.684z"/>
	<path style="fill:#777777;" d="M157.778,47.118c-0.015-0.17-0.059-0.32-0.131-0.45s-0.166-0.237-0.281-0.322
		s-0.249-0.15-0.401-0.195s-0.316-0.067-0.491-0.067c-0.24,0-0.453,0.049-0.638,0.146c-0.185,0.097-0.34,0.228-0.465,0.39
		s-0.22,0.348-0.285,0.555c-0.064,0.208-0.098,0.422-0.098,0.642c0,0.26,0.03,0.5,0.09,0.72c0.061,0.22,0.153,0.411,0.278,0.574
		c0.125,0.162,0.279,0.288,0.465,0.378c0.185,0.091,0.402,0.136,0.652,0.136c0.18,0,0.346-0.03,0.499-0.09
		c0.152-0.061,0.287-0.143,0.404-0.248c0.118-0.104,0.214-0.231,0.289-0.379s0.125-0.309,0.15-0.483h0.284
		c-0.029,0.229-0.092,0.435-0.188,0.615c-0.095,0.18-0.215,0.331-0.359,0.453c-0.146,0.123-0.311,0.217-0.495,0.281
		c-0.186,0.065-0.38,0.098-0.585,0.098c-0.315,0-0.584-0.056-0.807-0.169c-0.223-0.112-0.404-0.264-0.547-0.453
		c-0.143-0.19-0.248-0.409-0.315-0.656c-0.067-0.248-0.102-0.507-0.102-0.776c0-0.271,0.039-0.525,0.116-0.766
		c0.078-0.239,0.191-0.449,0.342-0.63c0.15-0.18,0.335-0.322,0.555-0.427c0.22-0.105,0.473-0.158,0.758-0.158
		c0.21,0,0.406,0.026,0.589,0.079s0.345,0.131,0.487,0.236c0.143,0.104,0.259,0.238,0.349,0.401c0.09,0.162,0.146,0.352,0.165,0.566
		H157.778z"/>
	<path style="fill:#777777;" d="M158.783,44.425h0.285v3.548l2.378-2.048h0.412l-1.688,1.44l1.808,2.415h-0.39l-1.643-2.197
		l-0.878,0.742v1.455h-0.285V44.425z"/>
	<path style="fill:#777777;" d="M162.376,48.498c0.011,0.18,0.05,0.339,0.12,0.476c0.07,0.138,0.161,0.256,0.274,0.353
		c0.112,0.098,0.243,0.172,0.394,0.222c0.149,0.05,0.312,0.075,0.487,0.075c0.125,0,0.259-0.012,0.401-0.034
		s0.274-0.063,0.397-0.124c0.122-0.06,0.224-0.144,0.304-0.251s0.12-0.243,0.12-0.408c0-0.215-0.065-0.378-0.195-0.488
		c-0.13-0.109-0.294-0.194-0.491-0.255c-0.197-0.06-0.41-0.108-0.638-0.146c-0.228-0.038-0.439-0.094-0.638-0.169
		c-0.197-0.075-0.361-0.182-0.491-0.319c-0.13-0.137-0.194-0.338-0.194-0.604c0-0.189,0.042-0.349,0.127-0.477
		c0.085-0.127,0.194-0.229,0.326-0.304c0.133-0.074,0.281-0.128,0.446-0.161c0.165-0.032,0.33-0.049,0.495-0.049
		c0.2,0,0.388,0.022,0.562,0.067c0.175,0.046,0.326,0.118,0.454,0.218c0.127,0.101,0.228,0.228,0.3,0.383s0.108,0.343,0.108,0.562
		h-0.284c0-0.175-0.029-0.325-0.087-0.45s-0.138-0.227-0.24-0.304s-0.224-0.135-0.363-0.173c-0.14-0.037-0.29-0.056-0.45-0.056
		c-0.13,0-0.261,0.013-0.394,0.037c-0.133,0.025-0.251,0.067-0.356,0.128c-0.104,0.06-0.191,0.138-0.259,0.232
		s-0.101,0.21-0.101,0.345c0,0.155,0.037,0.28,0.112,0.375s0.174,0.172,0.296,0.229c0.123,0.058,0.26,0.104,0.413,0.139
		c0.152,0.035,0.306,0.07,0.461,0.105c0.189,0.035,0.368,0.076,0.536,0.124c0.167,0.047,0.312,0.112,0.435,0.194
		c0.123,0.083,0.219,0.189,0.289,0.319s0.105,0.295,0.105,0.495c0,0.21-0.048,0.382-0.143,0.518
		c-0.096,0.135-0.216,0.243-0.36,0.326c-0.146,0.082-0.307,0.14-0.483,0.172c-0.178,0.032-0.352,0.049-0.521,0.049
		c-0.22,0-0.424-0.028-0.611-0.086s-0.352-0.146-0.491-0.263s-0.25-0.261-0.33-0.432c-0.08-0.17-0.122-0.367-0.128-0.592H162.376z"
		/>
	<path style="fill:#777777;" d="M167.754,47.853c0-0.274,0.038-0.533,0.116-0.776c0.077-0.242,0.191-0.456,0.341-0.641
		c0.15-0.186,0.335-0.331,0.556-0.439c0.22-0.107,0.472-0.161,0.757-0.161s0.538,0.054,0.758,0.161
		c0.22,0.108,0.405,0.254,0.555,0.439c0.15,0.185,0.264,0.398,0.342,0.641c0.077,0.243,0.116,0.502,0.116,0.776
		c0,0.275-0.039,0.535-0.116,0.78c-0.078,0.245-0.191,0.459-0.342,0.642c-0.149,0.183-0.335,0.327-0.555,0.435
		s-0.473,0.161-0.758,0.161s-0.537-0.054-0.757-0.161c-0.221-0.107-0.405-0.252-0.556-0.435c-0.149-0.183-0.264-0.396-0.341-0.642
		C167.792,48.388,167.754,48.128,167.754,47.853z M168.039,47.853c0,0.23,0.032,0.451,0.097,0.664
		c0.065,0.213,0.16,0.401,0.285,0.566s0.28,0.296,0.465,0.394c0.186,0.098,0.397,0.146,0.638,0.146s0.453-0.049,0.638-0.146
		s0.34-0.229,0.465-0.394s0.22-0.354,0.285-0.566s0.098-0.434,0.098-0.664c0-0.229-0.032-0.451-0.098-0.663
		c-0.065-0.213-0.16-0.401-0.285-0.566s-0.28-0.297-0.465-0.394c-0.185-0.098-0.397-0.146-0.638-0.146s-0.452,0.049-0.638,0.146
		c-0.185,0.097-0.34,0.229-0.465,0.394s-0.22,0.354-0.285,0.566C168.071,47.401,168.039,47.623,168.039,47.853z"/>
	<path style="fill:#777777;" d="M172.313,44.425v5.355h-0.285v-5.355H172.313z"/>
	<path style="fill:#777777;" d="M176.198,48.955h-0.015c-0.16,0.306-0.36,0.534-0.601,0.687c-0.239,0.152-0.532,0.229-0.877,0.229
		c-0.29,0-0.54-0.055-0.75-0.165c-0.21-0.109-0.383-0.257-0.518-0.442c-0.135-0.185-0.235-0.398-0.3-0.642
		c-0.065-0.242-0.098-0.496-0.098-0.761c0-0.285,0.035-0.552,0.104-0.799c0.07-0.247,0.177-0.461,0.319-0.642
		c0.143-0.18,0.321-0.322,0.536-0.427c0.215-0.105,0.467-0.158,0.757-0.158c0.155,0,0.308,0.021,0.458,0.064
		c0.15,0.042,0.289,0.104,0.416,0.184c0.128,0.08,0.239,0.18,0.334,0.3s0.167,0.255,0.218,0.405h0.015v-2.363h0.285v5.355h-0.285
		V48.955z M174.766,49.623c0.245,0,0.456-0.05,0.634-0.15c0.178-0.1,0.325-0.232,0.442-0.397s0.205-0.354,0.263-0.566
		c0.058-0.212,0.086-0.429,0.086-0.648c0-0.225-0.028-0.443-0.086-0.656s-0.144-0.402-0.259-0.57
		c-0.115-0.167-0.264-0.301-0.446-0.401c-0.183-0.1-0.396-0.149-0.642-0.149c-0.255,0-0.472,0.049-0.652,0.146
		c-0.18,0.097-0.328,0.229-0.446,0.394c-0.117,0.165-0.202,0.354-0.255,0.569c-0.053,0.216-0.078,0.438-0.078,0.668
		c0,0.225,0.028,0.443,0.086,0.656s0.145,0.401,0.263,0.566c0.117,0.165,0.266,0.296,0.446,0.394
		C174.301,49.574,174.516,49.623,174.766,49.623z"/>
	<path style="fill:#777777;" d="M182.033,49.016h-0.015c-0.045,0.114-0.11,0.224-0.195,0.326s-0.188,0.193-0.312,0.273
		c-0.122,0.08-0.261,0.143-0.416,0.188s-0.325,0.067-0.51,0.067c-0.41,0-0.728-0.089-0.953-0.266
		c-0.225-0.178-0.337-0.451-0.337-0.821c0-0.226,0.045-0.409,0.135-0.552s0.204-0.255,0.341-0.338
		c0.138-0.082,0.29-0.141,0.458-0.176c0.167-0.035,0.329-0.06,0.483-0.075l0.442-0.037c0.205-0.016,0.366-0.039,0.484-0.071
		c0.117-0.032,0.206-0.077,0.266-0.135c0.061-0.058,0.098-0.132,0.113-0.222c0.015-0.09,0.022-0.202,0.022-0.338
		c0-0.104-0.021-0.202-0.061-0.292s-0.103-0.17-0.188-0.24c-0.085-0.069-0.194-0.125-0.33-0.165c-0.135-0.04-0.3-0.06-0.495-0.06
		c-0.345,0-0.623,0.085-0.836,0.255s-0.329,0.428-0.349,0.772h-0.285c0.021-0.425,0.156-0.744,0.409-0.956
		c0.252-0.213,0.611-0.319,1.076-0.319s0.804,0.092,1.016,0.274c0.213,0.183,0.319,0.421,0.319,0.716v2.242
		c0,0.056,0.001,0.11,0.004,0.165c0.002,0.056,0.011,0.105,0.026,0.15c0.015,0.045,0.039,0.081,0.074,0.108
		c0.035,0.028,0.085,0.042,0.15,0.042c0.05,0,0.12-0.008,0.21-0.022v0.239c-0.075,0.021-0.152,0.03-0.232,0.03
		c-0.115,0-0.206-0.015-0.273-0.045c-0.068-0.03-0.119-0.07-0.154-0.12s-0.059-0.108-0.071-0.176
		c-0.013-0.068-0.019-0.142-0.019-0.222V49.016z M182.033,47.59c-0.07,0.086-0.177,0.143-0.318,0.173
		c-0.143,0.03-0.302,0.053-0.477,0.067l-0.48,0.045c-0.14,0.016-0.279,0.036-0.42,0.064c-0.14,0.027-0.266,0.073-0.379,0.139
		c-0.112,0.064-0.203,0.153-0.273,0.266s-0.104,0.259-0.104,0.439c0,0.284,0.09,0.496,0.27,0.634
		c0.18,0.137,0.428,0.206,0.742,0.206c0.325,0,0.583-0.059,0.772-0.177c0.19-0.117,0.335-0.252,0.436-0.404
		c0.1-0.153,0.164-0.301,0.191-0.443s0.041-0.238,0.041-0.288V47.59z"/>
	<path style="fill:#777777;" d="M183.226,45.925h0.285v0.825h0.015c0.05-0.145,0.121-0.273,0.214-0.386s0.2-0.209,0.322-0.289
		c0.123-0.08,0.257-0.14,0.401-0.18c0.146-0.04,0.293-0.061,0.442-0.061c0.226,0,0.417,0.028,0.574,0.083s0.286,0.127,0.386,0.218
		c0.101,0.09,0.179,0.19,0.236,0.304c0.058,0.112,0.099,0.226,0.124,0.341s0.04,0.227,0.045,0.334s0.008,0.201,0.008,0.281v2.385
		h-0.285v-2.438c0-0.095-0.008-0.215-0.022-0.36c-0.015-0.145-0.059-0.283-0.131-0.416c-0.073-0.132-0.183-0.246-0.33-0.341
		c-0.147-0.096-0.352-0.143-0.611-0.143c-0.221,0-0.415,0.04-0.585,0.12s-0.315,0.19-0.436,0.333s-0.211,0.312-0.273,0.511
		c-0.062,0.197-0.094,0.413-0.094,0.648v2.085h-0.285V45.925z"/>
	<path style="fill:#777777;" d="M190.096,48.955h-0.015c-0.16,0.306-0.36,0.534-0.601,0.687c-0.239,0.152-0.532,0.229-0.877,0.229
		c-0.29,0-0.54-0.055-0.75-0.165c-0.21-0.109-0.383-0.257-0.518-0.442c-0.135-0.185-0.235-0.398-0.3-0.642
		c-0.065-0.242-0.098-0.496-0.098-0.761c0-0.285,0.035-0.552,0.104-0.799c0.07-0.247,0.177-0.461,0.319-0.642
		c0.143-0.18,0.321-0.322,0.536-0.427c0.215-0.105,0.467-0.158,0.757-0.158c0.155,0,0.308,0.021,0.458,0.064
		c0.15,0.042,0.289,0.104,0.416,0.184c0.128,0.08,0.239,0.18,0.334,0.3s0.167,0.255,0.218,0.405h0.015v-2.363h0.285v5.355h-0.285
		V48.955z M188.663,49.623c0.245,0,0.456-0.05,0.634-0.15c0.178-0.1,0.325-0.232,0.442-0.397s0.205-0.354,0.263-0.566
		c0.058-0.212,0.086-0.429,0.086-0.648c0-0.225-0.028-0.443-0.086-0.656s-0.144-0.402-0.259-0.57
		c-0.115-0.167-0.264-0.301-0.446-0.401c-0.183-0.1-0.396-0.149-0.642-0.149c-0.255,0-0.472,0.049-0.652,0.146
		c-0.18,0.097-0.328,0.229-0.446,0.394c-0.117,0.165-0.202,0.354-0.255,0.569c-0.053,0.216-0.078,0.438-0.078,0.668
		c0,0.225,0.028,0.443,0.086,0.656s0.145,0.401,0.263,0.566c0.117,0.165,0.266,0.296,0.446,0.394
		C188.198,49.574,188.413,49.623,188.663,49.623z"/>
	<path style="fill:#777777;" d="M193.373,45.925h0.285v0.825h0.015c0.05-0.145,0.121-0.273,0.214-0.386s0.2-0.209,0.322-0.289
		c0.123-0.08,0.257-0.14,0.401-0.18c0.146-0.04,0.293-0.061,0.442-0.061c0.226,0,0.417,0.028,0.574,0.083s0.286,0.127,0.386,0.218
		c0.101,0.09,0.179,0.19,0.236,0.304c0.058,0.112,0.099,0.226,0.124,0.341s0.04,0.227,0.045,0.334s0.008,0.201,0.008,0.281v2.385
		h-0.285v-2.438c0-0.095-0.008-0.215-0.022-0.36c-0.015-0.145-0.059-0.283-0.131-0.416c-0.073-0.132-0.183-0.246-0.33-0.341
		c-0.147-0.096-0.352-0.143-0.611-0.143c-0.221,0-0.415,0.04-0.585,0.12s-0.315,0.19-0.436,0.333s-0.211,0.312-0.273,0.511
		c-0.062,0.197-0.094,0.413-0.094,0.648v2.085h-0.285V45.925z"/>
	<path style="fill:#777777;" d="M197.371,47.891v0.045c0,0.225,0.029,0.439,0.09,0.645s0.149,0.386,0.267,0.54
		c0.118,0.155,0.266,0.277,0.444,0.367c0.178,0.091,0.385,0.136,0.62,0.136c0.386,0,0.691-0.102,0.917-0.304
		c0.226-0.203,0.382-0.484,0.467-0.844h0.285c-0.085,0.449-0.27,0.795-0.552,1.035c-0.282,0.239-0.656,0.359-1.121,0.359
		c-0.285,0-0.533-0.051-0.746-0.153s-0.39-0.243-0.532-0.42c-0.143-0.178-0.249-0.388-0.319-0.63
		c-0.069-0.243-0.104-0.504-0.104-0.784c0-0.271,0.036-0.528,0.108-0.776c0.072-0.247,0.182-0.465,0.326-0.652
		c0.146-0.188,0.326-0.338,0.544-0.45s0.474-0.169,0.769-0.169c0.271,0,0.509,0.051,0.717,0.15c0.207,0.1,0.381,0.236,0.521,0.408
		c0.141,0.173,0.247,0.373,0.319,0.601s0.108,0.472,0.108,0.731c0,0.024-0.001,0.054-0.004,0.086
		c-0.002,0.032-0.004,0.059-0.004,0.079H197.371z M200.206,47.643c-0.011-0.21-0.046-0.408-0.105-0.596
		c-0.061-0.188-0.149-0.353-0.267-0.495c-0.118-0.143-0.261-0.257-0.429-0.342c-0.169-0.085-0.36-0.127-0.576-0.127
		c-0.23,0-0.434,0.044-0.608,0.131c-0.176,0.088-0.323,0.203-0.444,0.345c-0.12,0.143-0.213,0.31-0.277,0.499
		c-0.065,0.19-0.105,0.385-0.121,0.585H200.206z"/>
	<path style="fill:#777777;" d="M202.118,49.45h0.015l1.051-3.525h0.382l1.058,3.525h0.016l1.08-3.525h0.314l-1.237,3.855h-0.353
		l-1.058-3.495h-0.015l-1.065,3.495h-0.36l-1.222-3.855h0.308L202.118,49.45z"/>
</g>
</svg>
