<svg xmlns="http://www.w3.org/2000/svg" viewBox="0 0 31 31"><path d="M1 1h7v7h-7zM10 1h3v1h-1v1h-1v-1h-1zM16 1h2v1h-2zM20 1h2v4h-1v1h-2v-1h1v-1h-1v-1h-1v-1h2v1h1v-1h-1zM23 1h7v7h-7zM2 2v5h5v-5zM13 2h1v3h3v1h1v2h-1v-1h-1v1h-1v-1h-1v-1h-1zM24 2v5h5v-5zM3 3h3v3h-3zM9 3h2v3h2v1h-1v1h-1v-1h-1v1h1v1h-2zM15 3h1v1h-1zM17 3h1v1h1v1h-2zM25 3h3v3h-3zM21 6h1v3h-1zM13 7h1v1h-1zM19 7h1v1h-1zM12 8h1v2h-2v-1h1zM14 8h1v1h-1zM16 8h1v2h1v1h-2v-1h-1v-1h1zM1 9h1v2h-1zM3 9h5v1h-5zM18 9h1v1h-1zM20 9h1v1h2v-1h5v1h-2v1h-1v1h1v1h-1v1h1v3h-1v-1h-1v-1h-1v-1h1v-3h-2v2h-1v1h1v1h1v1h-2v-1h-1v-1h-1v1h-1v-2h1v-1h2v-1h-2v-1h1zM8 10h1v1h-1zM10 10h1v1h-1zM29 10h1v1h-1zM3 11h5v1h-5zM11 11h1v2h1v-1h1v2h3v1h1v2h-1v1h-2v-1h1v-1h-1v1h-3v1h1v1h-1v2h-1v-1h-1v-1h-2v-1h-1v1h-1v-1h-1v-1h3v-1h5v-2h-1v1h-3v-1h-3v-1h2v-1h1v1h1v1h1v-1h-1v-1h1zM18 11h1v1h-1zM1 12h2v1h-2zM15 12h1v1h-1zM17 12h1v1h-1zM28 12h1v1h-1zM3 13h1v2h-1zM26 13h2v3h-1v-2h-1zM1 14h1v1h-1zM5 14h1v1h-1zM29 14h1v1h-1zM2 15h1v2h-2v-1h1zM4 15h1v2h-1zM6 15h2v1h-2zM20 16h1v1h-1zM23 16h1v1h-1zM28 16h1v1h-1zM3 17h1v1h1v1h-1v2h2v1h-3v-3h-1v3h-1v-4h2zM18 17h1v1h-1zM27 17h1v3h-3v1h1v1h1v-1h1v-1h1v1h1v2h-2v1h-1v1h-1v1h-5v-2h-1v2h1v2h-1v-1h-2v1h-2v-1h1v-1h1v-1h1v-1h-1v1h-1v-1h-2v1h-1v-1h-1v-1h-1v-1h1v-2h1v2h2v1h1v-1h1v1h3v-1h-1v-2h2v1h1v-2h-3v-1h7zM17 18h1v1h-1zM29 18h1v1h-1zM5 19h1v1h-1zM7 19h1v1h-1zM16 19h1v1h1v1h-1v1h-1v-1h-1v-1h1zM19 19h1v1h-1zM6 20h1v1h-1zM9 20h1v1h1v1h-1v1h-1zM7 21h1v1h-1zM18 21h1v1h-1zM22 22v3h3v-3zM1 23h7v7h-7zM10 23h2v1h-1v1h-1v1h1v2h2v-1h-1v-3h1v2h1v1h1v1h1v1h-4v1h-1v-1h-1v-1h-1v-4h1zM23 23h1v1h-1zM2 24v5h5v-5zM3 25h3v3h-3zM15 25h1v1h-1zM27 25h2v1h1v1h-1v2h-1v-1h-1v-1h-1v-1h1zM22 27h4v1h1v1h1v1h-3v-2h-1v1h-1v-1h-1zM21 28h1v1h-1zM9 29h1v1h-1zM16 29h1v1h-1zM18 29h1v1h-1zM20 29h1v1h-1z"/></svg>